<svg xmlns="http://www.w3.org/2000/svg" width="500px" height="500px" fill="#0c1022" style="shape-rendering:geometricPrecision; text-rendering:geometricPrecision; image-rendering:optimizeQuality; fill-rule:evenodd; clip-rule:evenodd" xmlns:xlink="http://www.w3.org/1999/xlink">
    <g><path style="opacity:0.979"  d="M 216.5,-0.5 C 239.5,-0.5 262.5,-0.5 285.5,-0.5C 362.312,12.9675 421.812,52.3008 464,117.5C 481.314,148.283 493.147,180.95 499.5,215.5C 499.5,237.167 499.5,258.833 499.5,280.5C 489.524,345.63 459.858,399.797 410.5,443C 372.873,472.975 330.206,491.808 282.5,499.5C 260.833,499.5 239.167,499.5 217.5,499.5C 138.992,487.182 78.1591,447.849 35,381.5C 17.0665,349.861 5.23317,316.194 -0.5,280.5C -0.5,259.5 -0.5,238.5 -0.5,217.5C 9.74097,152.843 39.4076,99.0093 88.5,56C 126.177,25.9977 168.844,7.16435 216.5,-0.5 Z M 229.5,32.5 C 291.437,28.8695 346.104,46.7028 393.5,86C 442.139,130.564 466.806,185.897 467.5,252C 464.947,324.435 434.614,382.435 376.5,426C 331.796,457.451 282.129,470.785 227.5,466C 196.775,462.068 167.775,452.735 140.5,438C 77.6756,399.284 41.6756,343.117 32.5,269.5C 27.9351,177.465 64.9351,107.298 143.5,59C 170.767,45.1855 199.434,36.3522 229.5,32.5 Z"/></g>
    <g><path style="opacity:0.975" d="M 305.5,110.5 C 317.32,109.817 324.32,115.317 326.5,127C 326.053,129.956 325.22,132.789 324,135.5C 288.028,172.472 251.695,209.139 215,245.5C 213,248.167 213,250.833 215,253.5C 251,289.5 287,325.5 323,361.5C 328.031,370.219 326.865,378.053 319.5,385C 313.338,389.035 307.005,389.369 300.5,386C 297.167,383.333 293.833,380.667 290.5,378C 260.333,347.833 230.167,317.667 200,287.5C 191.667,278.5 183.333,269.5 175,260.5C 171.56,251.827 172.227,243.493 177,235.5C 217.195,195.639 257.028,155.472 296.5,115C 299.462,113.15 302.462,111.65 305.5,110.5 Z"/></g>
</svg>