<svg xmlns="http://www.w3.org/2000/svg" width="512px" height="512px" fill="#fff" style="shape-rendering:geometricPrecision; text-rendering:geometricPrecision; image-rendering:optimizeQuality; fill-rule:evenodd; clip-rule:evenodd" xmlns:xlink="http://www.w3.org/1999/xlink">
    <g><path style="opacity:0.964" d="M 233.5,-0.5 C 248.167,-0.5 262.833,-0.5 277.5,-0.5C 377.805,11.9821 449.305,63.9821 492,155.5C 502.297,180.687 508.797,206.687 511.5,233.5C 511.5,248.167 511.5,262.833 511.5,277.5C 499.018,377.805 447.018,449.305 355.5,492C 330.313,502.297 304.313,508.797 277.5,511.5C 262.833,511.5 248.167,511.5 233.5,511.5C 133.195,499.018 61.6947,447.018 19,355.5C 8.70332,330.313 2.20332,304.313 -0.5,277.5C -0.5,262.833 -0.5,248.167 -0.5,233.5C 11.9821,133.195 63.9821,61.6947 155.5,19C 180.687,8.70332 206.687,2.20332 233.5,-0.5 Z M 234.5,32.5 C 315.729,27.8796 381.896,56.8796 433,119.5C 476.883,179.779 489.216,246.112 470,318.5C 450.323,380.175 411.823,426.008 354.5,456C 302.269,480.722 248.269,485.389 192.5,470C 130.825,450.323 84.9919,411.823 55,354.5C 30.2781,302.269 25.6115,248.269 41,192.5C 60.6774,130.825 99.1774,84.9919 156.5,55C 181.359,43.1227 207.359,35.6227 234.5,32.5 Z"/></g>
    <g><path style="opacity:0.961" d="M 191.5,113.5 C 196.182,113.338 200.515,114.505 204.5,117C 246.333,158.833 288.167,200.667 330,242.5C 332.009,246.564 332.842,250.897 332.5,255.5C 332.842,260.103 332.009,264.436 330,268.5C 288.167,310.333 246.333,352.167 204.5,394C 189.896,400.698 180.896,396.198 177.5,380.5C 177.969,376.926 179.136,373.592 181,370.5C 219.347,332.32 257.514,293.986 295.5,255.5C 257.514,217.014 219.347,178.68 181,140.5C 174.648,127.532 178.148,118.532 191.5,113.5 Z"/></g>
</svg>